name processed_emg_signals
nRows=65
nColumns=7
 
endheader
time	LGLTMED	LRF	LADDLONG	LST	LTA	LGM
0.0	0.0375355293735292	0.0910028673488193	0.0100554626188926	0.1730727654433031	0.374938048097021	0.0596326699323562
0.001	0.0405869104674763	0.0958444935628688	0.0020580225115442	0.1858000943641366	0.3499812676101951	0.0552794769384831
0.002	0.043653998686419	0.1007173868773868	0.0141636104545376	0.1984612401752644	0.325059687407107	0.050932085959603
0.003	0.0467358251603708	0.1056195685289638	0.026255232607116	0.2110465247874904	0.3001842400982263	0.0465925405092621
0.004	0.0498314462310865	0.1105490783578986	0.0383268906409728	0.2235463763981726	0.27536571168053	0.0422628594218533
0.005	0.0529399462322959	0.1155039797885578	0.0503726662266846	0.2359513481297825	0.2506147291975118	0.0379450342700082
0.006	0.0560604402281694	0.1204823647677418	0.06238673056421	0.2482521364552719	0.2259417489488601	0.0336410268788188
0.007	0.0591920767004951	0.1254823586403001	0.0743633536906568	0.2604395993414309	0.2013570452783628	0.0293527669445178
0.008	0.0623340401751036	0.1305021249429252	0.086296913536912	0.272504774042513	0.1768706999667161	0.025082149764952
0.009000000000000001	0.0654855537786699	0.1355398700978129	0.0981819047061672	0.2844388944783007	0.1524925922542317	0.0208310340886329
0.01	0.0686458817168495	0.140593847989474	0.1100129469482884	0.2962334081334759	0.1282323895166565	0.0166012400886788
0.011	0.0718143316649774	0.1456623644086416	0.1217847933049281	0.3078799924192344	0.1040995386157296	0.012394547467113
0.012	0.0749902570625688	0.1507437813486935	0.1334923379017323	0.3193705704425437	0.0801032579442727	0.0082126936942757
0.013000000000000001	0.07817305930292	0.1558365211407377	0.1451306233645952	0.3306973261338873	0.0562525301834248	0.0040573723872598
0.014	0.0813621898094434	0.1609390704145321	0.1566948478387886	0.3418527186896845	0.0325560957871645	6.976816968263224e-05
0.015	0.0845571519907249	0.1660499838727619	0.1681803715910018	0.3528294962912505	0.0090224472063757	0.0041671263603501
0.016	0.0877575030669366	0.1711678878667765	0.1795827231766506	0.3636207090676374	0.014340176138011	0.0082331484260226
0.017	0.0909628557601015	0.1762914837627355	0.1908976051559375	0.3742197212751549	0.0375237921267265	0.0122663295083708
0.018000000000000002	0.0941728798417439	0.1814195510876193	0.2021208993458214	0.3846202226709622	0.0605206794567323	0.0162652145460665
0.019	0.0973873035314349	0.1865509504456515	0.2132486715960314	0.3948162390621487	0.0833233804017209	0.0202283990260969
0.02	0.1006059147397824	0.1916846261963375	0.2242771760807845	0.4048021420150454	0.1059247028267775	0.0241545295915609
0.021	0.1038285621500788	0.1968196088865614	0.2352028590994136	0.4145726577125727	0.1283177214703351	0.0280423045083843
0.022	0.1070551561326904	0.2019550174299412	0.2460223623813743	0.4241228749496581	0.150495778511014	0.0318904739939429
0.023	0.1102856694875141	0.207090061027854	0.2567325258934552	0.4334482522582765	0.1724524834407486	0.0356978404112557
0.024	0.1135201380095581	0.2122240408273023	0.2673303901490727	0.4425446241547593	0.1941817122691796	0.0394632583329681
0.025	0.1167586608740553	0.2173563513117833	0.277813198021219	0.4514082065038363	0.2156776060871697	0.043185634479896
0.026000000000000002	0.1200014008371108	0.2224864814228188	0.2881783960620541	0.4600356009962686	0.2369345690193627	0.0468639275392173
0.027	0.1232485842487703	0.2276140154100323	0.298423635334308	0.4684237987399278	0.2579472655969924	0.0504971478676368
0.028	0.1265005008760457	0.232738633409092	0.3085467717605011	0.4765701829670183	0.2787106175825914	0.0540843570850262
0.029	0.1297575035340946	0.2378601117467469	0.3185458659974465	0.4844725308629638	0.2992198002787227	0.0576246675642266
0.03	0.1330200075249772	0.2429783229725948	0.3284191828429174	0.4921290145249148	0.3194702383530822	0.0611172418228826
0.031	0.1362884898838072	0.2480932356176727	0.3381651901831815	0.4995382010599755	0.339457601213063	0.0645612918232791
0.032	0.1395634884327465	0.2532049136794707	0.3477825574896157	0.5066990518350377	0.3591777979638602	0.0679560781862981
0.033	0.1428456006436198	0.2583135158328541	0.3572701538753964	0.5136109208913416	0.3786269719855138	0.0713009093257336
0.034	0.1461354823106264	0.2634192943659663	0.3666270457241358	0.5202735525373994	0.3978014951655727	0.0745951405090987
0.035	0.1494338460352482	0.2685225938395931	0.3758524939033911	0.5266870781345501	0.4166979618251104	0.0778381728512352
0.036000000000000004	0.1527414595257481	0.2736238494688171	0.3849459505768805	0.5328520120903999	0.4353131823763583	0.0810294522468775
0.037	0.1560591437147356	0.2787235852255832	0.393907055628484	0.5387692470770958	0.4536441767502021	0.0841684682483594
0.038	0.1593877706981261	0.2838224116616874	0.4027356327106247	0.5444400484933299	0.4716881676315139	0.0872547528946543
0.039	0.1627282614997855	0.2889210234519295	0.4114316849314083	0.5498660481904701	0.4894425735399679	0.0902878794980049
0.04	0.1660815836664257	0.2940201966588999	0.4199953901951672	0.5550492374844882	0.5069050017936172	0.0932674613942939
0.041	0.1694487486977487	0.2991207857223857	0.4284270962135993	0.5599919594760574	0.5240732413920651	0.0961931506634354
0.042	0.1728308093171629	0.3042237201783817	0.4367273152058932	0.5646969007018909	0.5409452558554004	0.0990646368258795
0.043000000000000003	0.176228856588916	0.3093300011151987	0.4448967183065967	0.5691670821417013	0.5575191760542114	0.1018816455214253
0.044	0.1796440168875165	0.3144406973757245	0.4529361297013765	0.5734058496071298	0.5737932930651786	0.1046439371763194
0.045	0.1830774487254577	0.3195569415167545	0.4608465205104508	0.577416863541251	0.589766051085683	0.1073513056646133
0.046	0.1865303394455804	0.3246799255371383	0.4686290024409004	0.5812040882599606	0.6054360404398363	0.1100035769694238
0.047	0.1900039017841587	0.3298108963877085	0.4762848212293306	0.5847717806682838	0.6208019907067998	0.1126006078496328
0.048	0.193499370311595	0.3349511512760361	0.4838153498977517	0.5881244784860044	0.6358627640007902	0.1151422845172297
0.049	0.1970179977573848	0.3401020327801403	0.4912220818446648	0.5912669880171729	0.6506173484302812	0.1176285213303882
0.05	0.2005610512263509	0.3452649237854834	0.498506623794157	0.5942043714976915	0.6650648517622055	0.1200592595071193
0.051000000000000004	0.2041298083128223	0.3504412422600345	0.5056706886249958	0.5969419340541792	0.6792044953151177	0.122434465864138
0.052000000000000005	0.2077255531197128	0.3556324358829838	0.512716088100019	0.5994852103063475	0.6930356081034601	0.1247541315854348
0.053	0.2113495721888817	0.3608399765428943	0.5196447255173265	0.6018399506440446	0.7065576212531504	0.127018271024634
0.054	0.2150031503494343	0.3660653547212468	0.5264585883027241	0.6040121072094347	0.7197700627065867	0.1292269205452303
0.055	0.2186875664911048	0.3713100737770352	0.5331597405624489	0.6060078196144041	0.7326725522330333	0.1313801374024258
0.056	0.2224040892694649	0.3765756441478543	0.5397503156140273	0.6078334004230466	0.745264796757945	0.1334779986701482
0.057	0.2261539727505926	0.3818635774827241	0.5462325085123303	0.6094953204284153	0.7575465860224297	0.1355206002166604
0.058	0.2299384520029313	0.387175380721629	0.5526085685853541	0.6110001937522225	0.769517788581496	0.137508055731626
0.059000000000000004	0.2337587386447608	0.3925125501365665	0.5588807919945273	0.6123547627950727	0.7811783481469616	0.1394404958073106
0.06	0.2376160163567445	0.3978765653491985	0.5650515143318064	0.6135658830644771	0.7925282802782805	0.1413180670760518
0.061	0.2415114363698309	0.4032688833391916	0.5711231032654909	0.6146405079075774	0.8035676694216108	0.1431409314056883
0.062	0.2454461129396092	0.4086909324576186	0.5770979512472614	0.6155856731757069	0.8142966662946718	0.144909265154294
0.063	0.2494211188194106	0.4141441064578219	0.5829784682922238	0.6164084818485458	0.8247154856120645	0.1466232584849661
0.064	0.2534374807448591	0.4196297585560353	0.5887670748457872	0.617116088646328	0.8348244041430214	0.1482831147411531
